<svg width="32" height="33" viewBox="0 0 32 33" fill="none" xmlns="http://www.w3.org/2000/svg">
<g clip-path="url(#clip0_1741_194622)">
<path d="M22 31.3375C20.15 32.0875 18.1188 32.5 16 32.5C13.8812 32.5 11.85 32.0875 10 31.3375V18.5C10 17.95 9.55 17.5 9 17.5C8.45 17.5 8 17.95 8 18.5V30.3625C3.21875 27.5937 0 22.425 0 16.5C0 7.6625 7.1625 0.5 16 0.5C24.8375 0.5 32 7.6625 32 16.5C32 22.425 28.7812 27.5937 24 30.3625V18.5C24 17.95 23.55 17.5 23 17.5C22.45 17.5 22 17.95 22 18.5V31.3375ZM12.2 15.1C12.5312 15.5438 13.1563 15.6313 13.6 15.3C14.0438 14.9688 14.1313 14.3437 13.8 13.9C11.9 11.3687 8.1 11.3687 6.2 13.9C5.86875 14.3437 5.95625 14.9688 6.4 15.3C6.84375 15.6313 7.46875 15.5438 7.8 15.1C8.9 13.6313 11.1 13.6313 12.2 15.1ZM19.8 15.1C20.9 13.6313 23.1 13.6313 24.2 15.1C24.5313 15.5438 25.1563 15.6313 25.6 15.3C26.0438 14.9688 26.1312 14.3437 25.8 13.9C23.9 11.3687 20.1 11.3687 18.2 13.9C17.8688 14.3437 17.9562 14.9688 18.4 15.3C18.8437 15.6313 19.4687 15.5438 19.8 15.1ZM13 21.5V23.5C13 25.1562 14.3438 26.5 16 26.5C17.6562 26.5 19 25.1562 19 23.5V21.5C19 19.8438 17.6562 18.5 16 18.5C14.3438 18.5 13 19.8438 13 21.5Z" fill="#10B981"/>
</g>
<defs>
<clipPath id="clip0_1741_194622">
<rect width="32" height="32" fill="white" transform="translate(0 0.5)"/>
</clipPath>
</defs>
</svg>
