<svg width="18" height="18" viewBox="0 0 18 18" fill="none" xmlns="http://www.w3.org/2000/svg">
<g clip-path="url(#clip0_1815_957)">
<path d="M3.74091 8.56989C3.74089 8.46937 3.76073 8.36983 3.79928 8.277C3.83783 8.18417 3.89433 8.09987 3.96555 8.02895C4.03676 7.95803 4.12128 7.90188 4.21425 7.86374C4.30722 7.82559 4.4068 7.80619 4.50729 7.80666L5.77787 7.81083C5.98046 7.81083 6.17476 7.89134 6.31801 8.03464C6.46126 8.17795 6.54174 8.37231 6.54174 8.57498V13.3813C6.68487 13.3389 6.86844 13.2936 7.06954 13.2464C7.20916 13.2136 7.3336 13.1345 7.42267 13.022C7.51174 12.9095 7.56022 12.7702 7.56026 12.6268V6.66494C7.56024 6.46225 7.64071 6.26786 7.78396 6.12452C7.92721 5.98118 8.12151 5.90063 8.32413 5.9006H9.59729C9.79989 5.90065 9.99419 5.9812 10.1374 6.12454C10.2807 6.26787 10.3612 6.46226 10.3612 6.66494V12.1983C10.3612 12.1983 10.6798 12.0692 10.9904 11.9381C11.1057 11.8893 11.2041 11.8076 11.2733 11.7032C11.3425 11.5988 11.3795 11.4764 11.3796 11.3511V4.75422C11.3796 4.65388 11.3994 4.55452 11.4377 4.46181C11.4761 4.36911 11.5324 4.28487 11.6033 4.21391C11.6742 4.14295 11.7584 4.08666 11.8511 4.04826C11.9437 4.00985 12.0431 3.99008 12.1434 3.99007H13.4165C13.6191 3.99007 13.8134 4.07058 13.9567 4.21388C14.0999 4.35719 14.1804 4.55155 14.1804 4.75422V10.1864C15.2842 9.3862 16.4028 8.4237 17.2905 7.26641C17.4193 7.09842 17.5045 6.90116 17.5386 6.69221C17.5726 6.48326 17.5545 6.26913 17.4857 6.06892C16.885 4.31782 15.7584 2.79506 14.2598 1.70884C12.7612 0.622615 10.9638 0.0259585 9.1133 0.000449724C4.12342 -0.0666058 -0.000446995 4.00815 4.31765e-05 9.00048C-0.00485627 10.5802 0.407299 12.1332 1.19484 13.5025C1.30344 13.6898 1.46322 13.8422 1.6554 13.9418C1.84759 14.0414 2.06419 14.084 2.27977 14.0648C2.52063 14.0436 2.82049 14.0136 3.17696 13.9717C3.33212 13.9541 3.47537 13.8799 3.57942 13.7634C3.68347 13.6469 3.74106 13.4962 3.74121 13.34V8.56989" fill="#D4D4D4"/>
<path d="M3.7132 16.2782C5.05516 17.2548 6.64102 17.841 8.29534 17.972C9.94967 18.1029 11.608 17.7735 13.0867 17.0202C14.5655 16.2668 15.8072 15.1189 16.6743 13.7035C17.5414 12.2881 18.0002 10.6602 18 9.00014C18 8.79291 17.9903 8.588 17.9765 8.3842C14.6898 13.2877 8.62122 15.5804 3.71313 16.2784" fill="#D4D4D4"/>
</g>
<defs>
<clipPath id="clip0_1815_957">
<rect width="18" height="18" fill="white"/>
</clipPath>
</defs>
</svg>
