<svg width="16" height="16" viewBox="0 0 16 16" fill="none" xmlns="http://www.w3.org/2000/svg">
<path d="M13.8182 3.63619C13.8182 3.63619 12.1509 2.33146 10.1818 2.18164L10.0044 2.53655C11.7847 2.97219 12.6015 3.59655 13.4545 4.36346C11.9836 3.61255 10.5313 2.90891 8 2.90891C5.46873 2.90891 4.01636 3.61255 2.54545 4.36346C3.39855 3.59655 4.37018 2.90346 5.99564 2.53655L5.81818 2.18164C3.75236 2.37691 2.18182 3.63619 2.18182 3.63619C2.18182 3.63619 0.319636 6.33619 0 11.6362C1.87709 13.8009 4.72727 13.818 4.72727 13.818L5.32327 13.0235C4.31164 12.6718 3.16909 12.0438 2.18182 10.9089C3.35927 11.7998 5.13636 12.7271 8 12.7271C10.8636 12.7271 12.6407 11.7998 13.8182 10.9089C12.8309 12.0438 11.6884 12.6718 10.6767 13.0235L11.2727 13.818C11.2727 13.818 14.1229 13.8009 16 11.6362C15.6804 6.33619 13.8182 3.63619 13.8182 3.63619ZM5.63636 10.1816C4.93345 10.1816 4.36364 9.53037 4.36364 8.7271C4.36364 7.92382 4.93345 7.27255 5.63636 7.27255C6.33927 7.27255 6.90909 7.92382 6.90909 8.7271C6.90909 9.53037 6.33927 10.1816 5.63636 10.1816ZM10.3636 10.1816C9.66073 10.1816 9.09091 9.53037 9.09091 8.7271C9.09091 7.92382 9.66073 7.27255 10.3636 7.27255C11.0665 7.27255 11.6364 7.92382 11.6364 8.7271C11.6364 9.53037 11.0665 10.1816 10.3636 10.1816Z" fill="white"/>
</svg>
