<svg width="18" height="18" viewBox="0 0 18 18" fill="none" xmlns="http://www.w3.org/2000/svg">
<g clip-path="url(#clip0_1856_2319)">
<path d="M4.32525 8.61801C4.32524 8.52865 4.34287 8.44018 4.37713 8.35766C4.4114 8.27514 4.46163 8.20021 4.52493 8.13717C4.58823 8.07413 4.66336 8.02422 4.746 7.99031C4.82864 7.9564 4.91716 7.93916 5.00648 7.93958L6.13589 7.94328C6.31597 7.94328 6.48867 8.01485 6.61601 8.14223C6.74335 8.26961 6.81488 8.44238 6.81488 8.62253V12.8948C6.94211 12.8571 7.10528 12.8169 7.28403 12.7749C7.40814 12.7457 7.51875 12.6754 7.59793 12.5754C7.6771 12.4755 7.7202 12.3517 7.72023 12.2241V6.92471C7.72021 6.74455 7.79174 6.57175 7.91908 6.44434C8.04641 6.31693 8.21912 6.24533 8.39922 6.24531H9.53092C9.71102 6.24535 9.88372 6.31695 10.0111 6.44436C10.1384 6.57177 10.2099 6.74455 10.2099 6.92471V11.8433C10.2099 11.8433 10.4931 11.7285 10.7692 11.612C10.8717 11.5686 10.9592 11.496 11.0207 11.4032C11.0823 11.3104 11.1151 11.2015 11.1152 11.0902V5.2263C11.1152 5.13711 11.1328 5.04879 11.1669 4.96638C11.201 4.88398 11.251 4.8091 11.314 4.74602C11.3771 4.68295 11.4519 4.63292 11.5343 4.59878C11.6166 4.56464 11.7049 4.54706 11.7941 4.54706H12.9258C13.1059 4.54706 13.2786 4.61862 13.4059 4.746C13.5333 4.87338 13.6048 5.04615 13.6048 5.2263V10.0549C14.5859 9.34362 15.5803 8.48806 16.3694 7.45936C16.4838 7.31004 16.5596 7.13469 16.5899 6.94895C16.6201 6.76322 16.604 6.57288 16.5428 6.39492C16.0089 4.83839 15.0075 3.48482 13.6754 2.51929C12.3433 1.55376 10.7456 1.0234 9.10071 1.00073C4.66526 0.94112 0.999603 4.56313 1.00004 9.00075C0.995683 10.405 1.36204 11.7854 2.06208 13.0026C2.15862 13.169 2.30064 13.3045 2.47147 13.393C2.6423 13.4816 2.83483 13.5195 3.02646 13.5023C3.24056 13.4835 3.5071 13.4568 3.82397 13.4196C3.96189 13.4039 4.08922 13.338 4.18171 13.2345C4.2742 13.1309 4.32538 12.997 4.32552 12.8581V8.61801" fill="#A3A3A3"/>
<path d="M4.30084 15.4701C5.49369 16.3381 6.90335 16.8592 8.37386 16.9756C9.84436 17.092 11.3184 16.7992 12.6329 16.1295C13.9473 15.4599 15.051 14.4396 15.8218 13.1814C16.5926 11.9232 17.0004 10.4763 17.0002 9.00063C17.0002 8.81642 16.9916 8.63428 16.9793 8.45312C14.0578 12.8118 8.66352 14.8498 4.30078 15.4702" fill="#A3A3A3"/>
</g>
<defs>
<clipPath id="clip0_1856_2319">
<rect width="16" height="16" fill="white" transform="translate(1 1)"/>
</clipPath>
</defs>
</svg>
