<svg width="16" height="17" viewBox="0 0 16 17" fill="none" xmlns="http://www.w3.org/2000/svg">
<g clip-path="url(#clip0_2021_268236)">
<path d="M8 0.75C3.7185 0.75 0.25 4.219 0.25 8.5C0.25 12.781 3.719 16.25 8 16.25C12.2815 16.25 15.75 12.781 15.75 8.5C15.75 4.219 12.281 0.75 8 0.75ZM11.8065 6.0595L10.5345 12.0535C10.4405 12.4785 10.1875 12.5815 9.8345 12.3815L7.897 10.9535L6.9625 11.8535C6.8595 11.9565 6.772 12.044 6.572 12.044L6.7095 10.072L10.3 6.828C10.4565 6.6905 10.2655 6.6125 10.059 6.75L5.6215 9.5435L3.709 8.9465C3.2935 8.8155 3.284 8.531 3.7965 8.331L11.2685 5.4495C11.6155 5.3245 11.9185 5.534 11.806 6.059L11.8065 6.0595Z" fill="#DEDEDE"/>
</g>
<defs>
<clipPath id="clip0_2021_268236">
<rect width="16" height="16" fill="white" transform="translate(0 0.5)"/>
</clipPath>
</defs>
</svg>
