<svg width="20" height="20" viewBox="0 0 20 20" fill="none" xmlns="http://www.w3.org/2000/svg">
<g id="iconamoon:lightning-1-fill">
<path id="Vector" fill-rule="evenodd" clip-rule="evenodd" d="M11.6668 1.66676C11.6668 1.48357 11.6066 1.30545 11.4953 1.15996C11.3839 1.01447 11.2278 0.909711 11.0509 0.861895C10.8741 0.814079 10.6864 0.825869 10.5169 0.89544C10.3475 0.965011 10.2057 1.08849 10.1134 1.24677L4.28008 11.2468C4.20618 11.3734 4.16701 11.5173 4.16651 11.6639C4.16601 11.8106 4.20421 11.9547 4.27725 12.0819C4.35029 12.209 4.45558 12.3146 4.5825 12.3881C4.70941 12.4615 4.85346 12.5001 5.00008 12.5001H8.33342V18.3334C8.33332 18.5166 8.3936 18.6947 8.50492 18.8402C8.61624 18.9857 8.7724 19.0905 8.94924 19.1383C9.12608 19.1861 9.31375 19.1743 9.48322 19.1048C9.65269 19.0352 9.79451 18.9117 9.88675 18.7534L15.7201 8.75343C15.794 8.62679 15.8332 8.48289 15.8337 8.33626C15.8342 8.18963 15.796 8.04547 15.7229 7.91833C15.6499 7.79118 15.5446 7.68556 15.4177 7.61213C15.2908 7.5387 15.1467 7.50005 15.0001 7.5001H11.6668V1.66676Z" fill="#10B981"/>
</g>
</svg>
