<svg width="16" height="16" viewBox="0 0 16 16" fill="none" xmlns="http://www.w3.org/2000/svg">
<path d="M8.9688 10.3967C8.94531 10.3734 8.91358 10.3604 8.88052 10.3604C8.84746 10.3604 8.81573 10.3734 8.79224 10.3967L6.97661 12.2123C6.13599 13.0529 4.71724 13.142 3.78911 12.2123C2.85942 11.2826 2.94849 9.86543 3.78911 9.02481L5.60474 7.20918C5.65317 7.16074 5.65317 7.08106 5.60474 7.03262L4.98286 6.41074C4.95937 6.38748 4.92764 6.37443 4.89458 6.37443C4.86152 6.37443 4.82979 6.38748 4.8063 6.41074L2.99067 8.22637C1.6688 9.54824 1.6688 11.6873 2.99067 13.0076C4.31255 14.3279 6.45161 14.3295 7.77192 13.0076L9.58755 11.192C9.63599 11.1436 9.63599 11.0639 9.58755 11.0154L8.9688 10.3967ZM13.0094 2.99043C11.6875 1.66855 9.54849 1.66855 8.22817 2.99043L6.41099 4.80606C6.38772 4.82955 6.37467 4.86127 6.37467 4.89434C6.37467 4.9274 6.38772 4.95912 6.41099 4.98262L7.0313 5.60293C7.07974 5.65137 7.15942 5.65137 7.20786 5.60293L9.02349 3.7873C9.86411 2.94668 11.2829 2.85762 12.211 3.7873C13.1407 4.71699 13.0516 6.13418 12.211 6.97481L10.3954 8.79043C10.3721 8.81392 10.359 8.84565 10.359 8.87871C10.359 8.91177 10.3721 8.9435 10.3954 8.96699L11.0172 9.58887C11.0657 9.63731 11.1454 9.63731 11.1938 9.58887L13.0094 7.77324C14.3297 6.45137 14.3297 4.3123 13.0094 2.99043ZM9.53286 5.81699C9.50937 5.79373 9.47764 5.78068 9.44458 5.78068C9.41152 5.78068 9.37979 5.79373 9.3563 5.81699L5.81724 9.35449C5.79397 9.37799 5.78092 9.40971 5.78092 9.44277C5.78092 9.47584 5.79397 9.50756 5.81724 9.53106L6.43599 10.1498C6.48442 10.1982 6.56411 10.1982 6.61255 10.1498L10.15 6.61231C10.1985 6.56387 10.1985 6.48418 10.15 6.43574L9.53286 5.81699Z" fill="white"/>
</svg>
