<svg width="18" height="18" viewBox="0 0 18 18" fill="none" xmlns="http://www.w3.org/2000/svg">
<g clip-path="url(#clip0_1869_7570)">
<path d="M8.9999 0.428574C7.30463 0.428574 5.64743 0.931279 4.23787 1.87312C2.82831 2.81496 1.72968 4.15364 1.08093 5.71986C0.432181 7.28608 0.262438 9.00951 0.593168 10.6722C0.923899 12.3349 1.74025 13.8622 2.93898 15.0609C4.13772 16.2597 5.665 17.076 7.3277 17.4067C8.99039 17.7375 10.7138 17.5677 12.28 16.919C13.8463 16.2702 15.1849 15.1716 16.1268 13.762C17.0686 12.3525 17.5713 10.6953 17.5713 9C17.5713 6.72672 16.6683 4.54654 15.0608 2.93909C13.4534 1.33163 11.2732 0.428574 8.9999 0.428574ZM7.93562 4.71429C7.93562 4.43013 8.0485 4.15761 8.24943 3.95667C8.45036 3.75574 8.72288 3.64286 9.00704 3.64286C9.2912 3.64286 9.56373 3.75574 9.76466 3.95667C9.96559 4.15761 10.0785 4.43013 10.0785 4.71429V9.63572C10.0785 9.77642 10.0508 9.91575 9.99691 10.0457C9.94307 10.1757 9.86415 10.2938 9.76466 10.3933C9.66517 10.4928 9.54705 10.5717 9.41706 10.6256C9.28707 10.6794 9.14775 10.7071 9.00704 10.7071C8.86634 10.7071 8.72702 10.6794 8.59703 10.6256C8.46703 10.5717 8.34892 10.4928 8.24943 10.3933C8.14994 10.2938 8.07102 10.1757 8.01717 10.0457C7.96333 9.91575 7.93562 9.77642 7.93562 9.63572V4.71429ZM8.9999 14.3571C8.75691 14.3571 8.51938 14.2851 8.31734 14.1501C8.11531 14.0151 7.95784 13.8232 7.86485 13.5987C7.77186 13.3742 7.74753 13.1272 7.79494 12.8889C7.84234 12.6506 7.95935 12.4317 8.13117 12.2598C8.30299 12.088 8.5219 11.971 8.76022 11.9236C8.99854 11.8762 9.24556 11.9005 9.47005 11.9935C9.69455 12.0865 9.88642 12.244 10.0214 12.446C10.1564 12.6481 10.2285 12.8856 10.2285 13.1286C10.2285 13.4544 10.099 13.7669 9.86863 13.9973C9.63823 14.2277 9.32574 14.3571 8.9999 14.3571Z" fill="#F87171"/>
</g>
<defs>
<clipPath id="clip0_1869_7570">
<rect width="18" height="18" fill="white"/>
</clipPath>
</defs>
</svg>
