<svg width="16" height="17" viewBox="0 0 16 17" fill="none" xmlns="http://www.w3.org/2000/svg">
<path d="M13.3335 3.16666H2.66683C1.9335 3.16666 1.34016 3.76666 1.34016 4.49999L1.3335 12.5C1.3335 13.2333 1.9335 13.8333 2.66683 13.8333H13.3335C14.0668 13.8333 14.6668 13.2333 14.6668 12.5V4.49999C14.6668 3.76666 14.0668 3.16666 13.3335 3.16666ZM13.0668 5.99999L8.3535 8.94666C8.14016 9.07999 7.86016 9.07999 7.64683 8.94666L2.9335 5.99999C2.86665 5.96246 2.80811 5.91176 2.76142 5.85096C2.71474 5.79015 2.68087 5.72051 2.66188 5.64624C2.64289 5.57197 2.63916 5.49461 2.65093 5.41886C2.6627 5.34311 2.68972 5.27053 2.73035 5.20552C2.77098 5.14052 2.82438 5.08443 2.88731 5.04065C2.95025 4.99688 3.02141 4.96633 3.09649 4.95086C3.17158 4.93538 3.24902 4.9353 3.32413 4.95062C3.39925 4.96594 3.47047 4.99635 3.5335 5.03999L8.00016 7.83332L12.4668 5.03999C12.5299 4.99635 12.6011 4.96594 12.6762 4.95062C12.7513 4.9353 12.8288 4.93538 12.9038 4.95086C12.9789 4.96633 13.0501 4.99688 13.113 5.04065C13.1759 5.08443 13.2293 5.14052 13.27 5.20552C13.3106 5.27053 13.3376 5.34311 13.3494 5.41886C13.3612 5.49461 13.3574 5.57197 13.3384 5.64624C13.3195 5.72051 13.2856 5.79015 13.2389 5.85096C13.1922 5.91176 13.1337 5.96246 13.0668 5.99999Z" fill="#DEDEDE"/>
</svg>
