<svg width="18" height="18" viewBox="0 0 18 18" fill="none" xmlns="http://www.w3.org/2000/svg">
<g clip-path="url(#clip0_1856_2310)">
<path d="M3.14908 7.28688C3.3233 7.66754 3.75508 8.42108 3.75508 8.42108L8.71671 0.0078125L3.8687 3.47256C3.58085 3.66677 3.34603 3.93866 3.17938 4.2494C2.73245 5.20493 2.72488 6.31582 3.14908 7.28688Z" fill="#A3A3A3"/>
<path d="M1.1794 10.0521C1.29303 11.6835 2.08083 13.1828 3.34585 14.1694L8.70139 17.9993C8.70139 17.9993 5.35323 13.043 2.52018 8.11775C2.23233 7.59726 2.04295 7.03016 1.95205 6.43976C1.91418 6.17563 1.91418 5.90373 1.95205 5.63184C1.8763 5.77167 1.73238 6.0591 1.73238 6.0591C1.44453 6.65728 1.24758 7.30206 1.15668 7.96238C1.11123 8.65378 1.11123 9.36071 1.1794 10.0521Z" fill="#A3A3A3"/>
<path d="M14.845 10.7211C14.6708 10.3405 14.239 9.58691 14.239 9.58691L9.27734 18.0002L14.1178 14.5354C14.4056 14.3412 14.6405 14.0693 14.8071 13.7586C15.2616 12.7953 15.2692 11.6844 14.845 10.7211Z" fill="#A3A3A3"/>
<path d="M16.8145 7.94716C16.7008 6.31578 15.913 4.81646 14.648 3.82986L9.29248 0C9.29248 0 12.6406 4.95629 15.4737 9.88151C15.7615 10.402 15.9509 10.9691 16.0418 11.5595C16.0797 11.8236 16.0797 12.0955 16.0418 12.3674C16.1176 12.2276 16.2615 11.9402 16.2615 11.9402C16.5493 11.342 16.7463 10.6972 16.8372 10.0369C16.8826 9.34549 16.8826 8.64632 16.8145 7.94716Z" fill="#A3A3A3"/>
<path d="M3.1792 4.2494C3.34585 3.93866 3.58068 3.66677 3.86853 3.47256L8.70896 0.0078125L3.74733 8.42108C3.74733 8.42108 3.31555 7.66754 3.14133 7.28688C2.71713 6.31582 2.73228 5.20493 3.1792 4.2494ZM1.1794 10.0525C1.29303 11.6838 2.08083 13.1832 3.34585 14.1698L8.70139 17.9996C8.70139 17.9996 5.35323 13.0433 2.52018 8.11811C2.23233 7.59762 2.04295 7.03052 1.95205 6.44012C1.91418 6.17599 1.91418 5.90409 1.95205 5.6322C1.8763 5.77203 1.73238 6.05946 1.73238 6.05946C1.44453 6.65764 1.24758 7.30242 1.15668 7.96274C1.11123 8.65414 1.11123 9.36107 1.1794 10.0525ZM14.8371 10.7206C14.6629 10.3399 14.2311 9.58635 14.2311 9.58635L9.27709 17.9996L14.1175 14.5349C14.4054 14.3407 14.6402 14.0688 14.8068 13.758C15.2538 12.8025 15.2689 11.6916 14.8371 10.7206ZM16.8066 7.95497C16.693 6.32359 15.9052 4.82427 14.6402 3.83768L9.29224 0.0078125C9.29224 0.0078125 12.6404 4.96411 15.4734 9.88932C15.7613 10.4098 15.9507 10.9769 16.0416 11.5673C16.0794 11.8314 16.0794 12.1033 16.0416 12.3752C16.1173 12.2354 16.2612 11.948 16.2612 11.948C16.5491 11.3498 16.746 10.705 16.8369 10.0447C16.89 9.34553 16.89 8.64637 16.8218 7.9472L16.8066 7.95497Z" fill="#A3A3A3"/>
</g>
<defs>
<clipPath id="clip0_1856_2310">
<rect width="18" height="18" fill="white"/>
</clipPath>
</defs>
</svg>
